<svg width="128" height="128" viewBox="0 0 128 128" fill="none" xmlns="http://www.w3.org/2000/svg">
  <path d="M96.7 22.4c4.9-6.8 11.8-9.4 18.9-8.8-3.1 3-4.9 6.9-5 10.7 4.5-1.7 9.5-1.3 13.4.8-3.4 2.3-5.5 5.7-6 9.4 4.6-.2 8.2 1.4 10 4.8-4.7 1.3-8 4.2-9.6 8.4-4.7-1-8.5-3.9-10.7-8.1-2.8 1.7-6.2 2.4-9.6 2.1l-1.4-19.3Z" fill="#4F63FF"/>
  <path d="M98.3 71.2c-8.6 20.7-30.3 35-55.8 35C18.3 106.2 1 92.1 1 74.5 1 56.7 18.6 42.4 43 42.4c5.5 0 10.8.7 15.7 2.1 8.8 2.5 13.6 7.3 18.9 13.4 3.5 4.1 8 6.5 14.1 6.7h6.6Z" fill="#4F63FF"/>
  <path d="M18 72.8c8.8-11.4 23.7-18.6 40.1-18.6 11.8 0 18.6 4.2 24.1 10.7-8.5-.2-15.3-3.4-20.5-8.5-3.8-3.7-8.3-5.6-13.8-5.6-12.7 0-24.4 8.6-29.9 22h0Z" fill="#EEF1FF"/>
  <path d="M33.4 84.5c3.8 6.9 11.5 11.5 20.4 11.5 10 0 18.5-5.8 21.6-13.9-4.5 2.9-10.2 4.8-16.4 4.8-9.6 0-18.1-4.3-23.2-10.9l-2.4 8.5Z" fill="#EEF1FF"/>
</svg>
